<svg viewBox="0 0 350 350" xmlns="http://www.w3.org/2000/svg" width="1920" height="1920">
    <defs>
          <linearGradient id="bg-gradient" x1="0%" y1="0%" x2="100%" y2="0%" gradientTransform="rotate(28)">
            <stop offset="0%" stop-color="#000000" />
<stop offset="100%" stop-color="#ff6912" />
          </linearGradient>
    </defs>
     <path d="M 290.5,175 C 290.5,195.3667589919342 280.41274342276046,226.41214249496713 268.44146285030644,242.88919663978066 C 256.4701822778524,259.3662507845942 230.06140170539837,278.55335298324377 210.69146285030644,284.8470276320902 C 191.3215239952145,291.14070228093664 158.67847600478552,291.1407022809367 139.3085371496936,284.84702763209026 C 119.93859829460166,278.5533529832438 93.52981772214761,259.36625078459423 81.55853714969358,242.88919663978066 C 69.58725657723954,226.41214249496713 59.5,195.3667589919342 59.5,175 C 59.5,154.6332410080658 69.58725657723953,123.5878575050329 81.55853714969356,107.11080336021936 C 93.5298177221476,90.63374921540583 119.93859829460163,71.44664701675622 139.30853714969356,65.15297236790977 C 158.6784760047855,58.85929771906333 191.32152399521448,58.85929771906332 210.6914628503064,65.15297236790975 C 230.06140170539834,71.44664701675619 256.4701822778524,90.63374921540579 268.44146285030644,107.11080336021932 C 280.41274342276046,123.58785750503286 290.5,154.6332410080658 290.5,175 Z" fill="url(#bg-gradient)" /> </svg>